<mxfile host="app.diagrams.net" modified="2022-06-19T04:09:13.514Z" agent="5.0 (Windows NT 10.0; Win64; x64) AppleWebKit/537.36 (KHTML, like Gecko) Chrome/102.0.5005.124 Safari/537.36 Edg/102.0.1245.44" etag="uWd5IEOuCxDr9CE2WowQ" version="20.0.0" type="github">
  <diagram id="c7SdOy1BEHa3Fqtv4Y00" name="Page-1">
    <mxGraphModel dx="1483" dy="827" grid="1" gridSize="10" guides="1" tooltips="1" connect="1" arrows="1" fold="1" page="1" pageScale="1" pageWidth="827" pageHeight="1169" math="0" shadow="0">
      <root>
        <mxCell id="0" />
        <mxCell id="1" parent="0" />
        <mxCell id="MskyVmGW8FZnysWZqeCZ-59" value="" style="ellipse;whiteSpace=wrap;html=1;fontFamily=Times New Roman;fontSize=24;fillColor=#dae8fc;dashed=1;strokeColor=#6c8ebf;" vertex="1" parent="1">
          <mxGeometry x="500" y="80" width="160" height="360" as="geometry" />
        </mxCell>
        <mxCell id="MskyVmGW8FZnysWZqeCZ-1" value="&lt;font face=&quot;Times New Roman&quot; style=&quot;font-size: 24px;&quot;&gt;&lt;i&gt;&lt;b&gt;s&lt;/b&gt;&lt;/i&gt;&lt;/font&gt;" style="ellipse;whiteSpace=wrap;html=1;aspect=fixed;fillColor=#CCCCCC;" vertex="1" parent="1">
          <mxGeometry x="120" y="200" width="40" height="40" as="geometry" />
        </mxCell>
        <mxCell id="MskyVmGW8FZnysWZqeCZ-3" value="" style="ellipse;whiteSpace=wrap;html=1;aspect=fixed;fillColor=#CCCCCC;" vertex="1" parent="1">
          <mxGeometry x="240" y="80" width="40" height="40" as="geometry" />
        </mxCell>
        <mxCell id="MskyVmGW8FZnysWZqeCZ-4" value="" style="ellipse;whiteSpace=wrap;html=1;aspect=fixed;fillColor=#CCCCCC;" vertex="1" parent="1">
          <mxGeometry x="240" y="320" width="40" height="40" as="geometry" />
        </mxCell>
        <mxCell id="MskyVmGW8FZnysWZqeCZ-5" value="" style="ellipse;whiteSpace=wrap;html=1;aspect=fixed;fillColor=#CCCCCC;" vertex="1" parent="1">
          <mxGeometry x="400" y="80" width="40" height="40" as="geometry" />
        </mxCell>
        <mxCell id="MskyVmGW8FZnysWZqeCZ-6" value="" style="ellipse;whiteSpace=wrap;html=1;aspect=fixed;fillColor=#CCCCCC;" vertex="1" parent="1">
          <mxGeometry x="400" y="320" width="40" height="40" as="geometry" />
        </mxCell>
        <mxCell id="MskyVmGW8FZnysWZqeCZ-7" value="" style="ellipse;whiteSpace=wrap;html=1;aspect=fixed;fillColor=#CCCCCC;" vertex="1" parent="1">
          <mxGeometry x="400" y="200" width="40" height="40" as="geometry" />
        </mxCell>
        <mxCell id="MskyVmGW8FZnysWZqeCZ-8" value="" style="ellipse;whiteSpace=wrap;html=1;aspect=fixed;fillColor=#CCCCCC;" vertex="1" parent="1">
          <mxGeometry x="560" y="200" width="40" height="40" as="geometry" />
        </mxCell>
        <mxCell id="MskyVmGW8FZnysWZqeCZ-9" value="" style="ellipse;whiteSpace=wrap;html=1;aspect=fixed;fillColor=#CCCCCC;" vertex="1" parent="1">
          <mxGeometry x="560" y="320" width="40" height="40" as="geometry" />
        </mxCell>
        <mxCell id="MskyVmGW8FZnysWZqeCZ-10" value="" style="ellipse;whiteSpace=wrap;html=1;aspect=fixed;fillColor=#CCCCCC;" vertex="1" parent="1">
          <mxGeometry x="720" y="80" width="40" height="40" as="geometry" />
        </mxCell>
        <mxCell id="MskyVmGW8FZnysWZqeCZ-11" value="" style="ellipse;whiteSpace=wrap;html=1;aspect=fixed;fillColor=#CCCCCC;" vertex="1" parent="1">
          <mxGeometry x="720" y="200" width="40" height="40" as="geometry" />
        </mxCell>
        <mxCell id="MskyVmGW8FZnysWZqeCZ-12" value="" style="ellipse;whiteSpace=wrap;html=1;aspect=fixed;fillColor=#CCCCCC;" vertex="1" parent="1">
          <mxGeometry x="720" y="320" width="40" height="40" as="geometry" />
        </mxCell>
        <mxCell id="MskyVmGW8FZnysWZqeCZ-13" value="" style="ellipse;whiteSpace=wrap;html=1;aspect=fixed;fillColor=#CCCCCC;" vertex="1" parent="1">
          <mxGeometry x="880" y="320" width="40" height="40" as="geometry" />
        </mxCell>
        <mxCell id="MskyVmGW8FZnysWZqeCZ-14" value="" style="ellipse;whiteSpace=wrap;html=1;aspect=fixed;fillColor=#CCCCCC;" vertex="1" parent="1">
          <mxGeometry x="880" y="200" width="40" height="40" as="geometry" />
        </mxCell>
        <mxCell id="MskyVmGW8FZnysWZqeCZ-15" value="" style="ellipse;whiteSpace=wrap;html=1;aspect=fixed;fillColor=#CCCCCC;" vertex="1" parent="1">
          <mxGeometry x="880" y="80" width="40" height="40" as="geometry" />
        </mxCell>
        <mxCell id="MskyVmGW8FZnysWZqeCZ-16" value="" style="ellipse;whiteSpace=wrap;html=1;aspect=fixed;fillColor=#CCCCCC;" vertex="1" parent="1">
          <mxGeometry x="880" y="440" width="40" height="40" as="geometry" />
        </mxCell>
        <mxCell id="MskyVmGW8FZnysWZqeCZ-17" value="" style="ellipse;whiteSpace=wrap;html=1;aspect=fixed;fillColor=#CCCCCC;" vertex="1" parent="1">
          <mxGeometry x="880" y="560" width="40" height="40" as="geometry" />
        </mxCell>
        <mxCell id="MskyVmGW8FZnysWZqeCZ-18" value="" style="ellipse;whiteSpace=wrap;html=1;aspect=fixed;fillColor=#CCCCCC;" vertex="1" parent="1">
          <mxGeometry x="1040" y="320" width="40" height="40" as="geometry" />
        </mxCell>
        <mxCell id="MskyVmGW8FZnysWZqeCZ-19" value="" style="ellipse;whiteSpace=wrap;html=1;aspect=fixed;fillColor=#CCCCCC;" vertex="1" parent="1">
          <mxGeometry x="1040" y="200" width="40" height="40" as="geometry" />
        </mxCell>
        <mxCell id="MskyVmGW8FZnysWZqeCZ-20" value="" style="ellipse;whiteSpace=wrap;html=1;aspect=fixed;fillColor=#CCCCCC;" vertex="1" parent="1">
          <mxGeometry x="1040" y="80" width="40" height="40" as="geometry" />
        </mxCell>
        <mxCell id="MskyVmGW8FZnysWZqeCZ-21" value="" style="ellipse;whiteSpace=wrap;html=1;aspect=fixed;fillColor=#CCCCCC;" vertex="1" parent="1">
          <mxGeometry x="1201" y="320" width="40" height="40" as="geometry" />
        </mxCell>
        <mxCell id="MskyVmGW8FZnysWZqeCZ-22" value="" style="ellipse;whiteSpace=wrap;html=1;aspect=fixed;fillColor=#CCCCCC;" vertex="1" parent="1">
          <mxGeometry x="1200.5" y="200" width="40" height="40" as="geometry" />
        </mxCell>
        <mxCell id="MskyVmGW8FZnysWZqeCZ-23" value="" style="ellipse;whiteSpace=wrap;html=1;aspect=fixed;fillColor=#CCCCCC;" vertex="1" parent="1">
          <mxGeometry x="1200.5" y="80" width="40" height="40" as="geometry" />
        </mxCell>
        <mxCell id="MskyVmGW8FZnysWZqeCZ-24" value="&lt;i&gt;&lt;b&gt;&lt;font style=&quot;font-size: 24px;&quot; face=&quot;Times New Roman&quot;&gt;t&lt;/font&gt;&lt;/b&gt;&lt;/i&gt;" style="ellipse;whiteSpace=wrap;html=1;aspect=fixed;fillColor=#CCCCCC;" vertex="1" parent="1">
          <mxGeometry x="1320" y="200" width="40" height="40" as="geometry" />
        </mxCell>
        <mxCell id="MskyVmGW8FZnysWZqeCZ-25" value="" style="endArrow=classic;html=1;rounded=0;fontFamily=Times New Roman;fontSize=24;entryX=0;entryY=1;entryDx=0;entryDy=0;exitX=1;exitY=0;exitDx=0;exitDy=0;" edge="1" parent="1" source="MskyVmGW8FZnysWZqeCZ-1" target="MskyVmGW8FZnysWZqeCZ-3">
          <mxGeometry width="50" height="50" relative="1" as="geometry">
            <mxPoint x="150" y="200" as="sourcePoint" />
            <mxPoint x="200" y="150" as="targetPoint" />
          </mxGeometry>
        </mxCell>
        <mxCell id="MskyVmGW8FZnysWZqeCZ-26" value="" style="endArrow=classic;html=1;rounded=0;fontFamily=Times New Roman;fontSize=24;entryX=0;entryY=0;entryDx=0;entryDy=0;exitX=1;exitY=1;exitDx=0;exitDy=0;" edge="1" parent="1" source="MskyVmGW8FZnysWZqeCZ-1" target="MskyVmGW8FZnysWZqeCZ-4">
          <mxGeometry width="50" height="50" relative="1" as="geometry">
            <mxPoint x="160" y="240" as="sourcePoint" />
            <mxPoint x="210" y="190" as="targetPoint" />
          </mxGeometry>
        </mxCell>
        <mxCell id="MskyVmGW8FZnysWZqeCZ-27" value="" style="endArrow=classic;html=1;rounded=0;fontFamily=Times New Roman;fontSize=24;entryX=0;entryY=0.5;entryDx=0;entryDy=0;" edge="1" parent="1" target="MskyVmGW8FZnysWZqeCZ-5">
          <mxGeometry width="50" height="50" relative="1" as="geometry">
            <mxPoint x="280" y="100" as="sourcePoint" />
            <mxPoint x="330" y="50" as="targetPoint" />
          </mxGeometry>
        </mxCell>
        <mxCell id="MskyVmGW8FZnysWZqeCZ-28" value="" style="endArrow=classic;html=1;rounded=0;fontFamily=Times New Roman;fontSize=24;entryX=0;entryY=0.5;entryDx=0;entryDy=0;" edge="1" parent="1" target="MskyVmGW8FZnysWZqeCZ-6">
          <mxGeometry width="50" height="50" relative="1" as="geometry">
            <mxPoint x="280" y="340" as="sourcePoint" />
            <mxPoint x="330" y="290" as="targetPoint" />
          </mxGeometry>
        </mxCell>
        <mxCell id="MskyVmGW8FZnysWZqeCZ-30" value="" style="endArrow=classic;html=1;rounded=0;fontFamily=Times New Roman;fontSize=24;entryX=0;entryY=0;entryDx=0;entryDy=0;exitX=1;exitY=1;exitDx=0;exitDy=0;" edge="1" parent="1" source="MskyVmGW8FZnysWZqeCZ-3" target="MskyVmGW8FZnysWZqeCZ-7">
          <mxGeometry width="50" height="50" relative="1" as="geometry">
            <mxPoint x="280" y="120" as="sourcePoint" />
            <mxPoint x="330" y="70" as="targetPoint" />
          </mxGeometry>
        </mxCell>
        <mxCell id="MskyVmGW8FZnysWZqeCZ-31" value="" style="endArrow=classic;html=1;rounded=0;fontFamily=Times New Roman;fontSize=24;entryX=0;entryY=0;entryDx=0;entryDy=0;exitX=1;exitY=0.75;exitDx=0;exitDy=0;exitPerimeter=0;" edge="1" parent="1" source="MskyVmGW8FZnysWZqeCZ-7" target="MskyVmGW8FZnysWZqeCZ-9">
          <mxGeometry width="50" height="50" relative="1" as="geometry">
            <mxPoint x="440.0021356237311" y="240.00213562373108" as="sourcePoint" />
            <mxPoint x="571.717864376269" y="331.71786437626895" as="targetPoint" />
          </mxGeometry>
        </mxCell>
        <mxCell id="MskyVmGW8FZnysWZqeCZ-32" value="" style="endArrow=classic;html=1;rounded=0;fontFamily=Times New Roman;fontSize=24;entryX=0;entryY=0;entryDx=0;entryDy=0;exitX=1;exitY=1;exitDx=0;exitDy=0;" edge="1" parent="1" source="MskyVmGW8FZnysWZqeCZ-5" target="MskyVmGW8FZnysWZqeCZ-8">
          <mxGeometry width="50" height="50" relative="1" as="geometry">
            <mxPoint x="440" y="120" as="sourcePoint" />
            <mxPoint x="490" y="70" as="targetPoint" />
          </mxGeometry>
        </mxCell>
        <mxCell id="MskyVmGW8FZnysWZqeCZ-33" value="" style="endArrow=classic;html=1;rounded=0;fontFamily=Times New Roman;fontSize=24;entryX=0;entryY=0.5;entryDx=0;entryDy=0;" edge="1" parent="1" target="MskyVmGW8FZnysWZqeCZ-8">
          <mxGeometry width="50" height="50" relative="1" as="geometry">
            <mxPoint x="440" y="220" as="sourcePoint" />
            <mxPoint x="490" y="170" as="targetPoint" />
          </mxGeometry>
        </mxCell>
        <mxCell id="MskyVmGW8FZnysWZqeCZ-35" value="" style="endArrow=classic;html=1;rounded=0;fontFamily=Times New Roman;fontSize=24;entryX=0;entryY=1;entryDx=0;entryDy=0;exitX=1;exitY=0;exitDx=0;exitDy=0;" edge="1" parent="1" source="MskyVmGW8FZnysWZqeCZ-6" target="MskyVmGW8FZnysWZqeCZ-8">
          <mxGeometry width="50" height="50" relative="1" as="geometry">
            <mxPoint x="440" y="320" as="sourcePoint" />
            <mxPoint x="490" y="270" as="targetPoint" />
          </mxGeometry>
        </mxCell>
        <mxCell id="MskyVmGW8FZnysWZqeCZ-36" value="" style="endArrow=classic;html=1;rounded=0;fontFamily=Times New Roman;fontSize=24;entryX=0;entryY=0.5;entryDx=0;entryDy=0;" edge="1" parent="1" target="MskyVmGW8FZnysWZqeCZ-11">
          <mxGeometry width="50" height="50" relative="1" as="geometry">
            <mxPoint x="600" y="220" as="sourcePoint" />
            <mxPoint x="650" y="170" as="targetPoint" />
          </mxGeometry>
        </mxCell>
        <mxCell id="MskyVmGW8FZnysWZqeCZ-37" value="" style="endArrow=classic;html=1;rounded=0;fontFamily=Times New Roman;fontSize=24;entryX=0;entryY=0.5;entryDx=0;entryDy=0;" edge="1" parent="1" target="MskyVmGW8FZnysWZqeCZ-12">
          <mxGeometry width="50" height="50" relative="1" as="geometry">
            <mxPoint x="600" y="340" as="sourcePoint" />
            <mxPoint x="650" y="290" as="targetPoint" />
          </mxGeometry>
        </mxCell>
        <mxCell id="MskyVmGW8FZnysWZqeCZ-38" value="" style="endArrow=classic;html=1;rounded=0;fontFamily=Times New Roman;fontSize=24;exitX=0.97;exitY=0.335;exitDx=0;exitDy=0;exitPerimeter=0;" edge="1" parent="1" source="MskyVmGW8FZnysWZqeCZ-9" target="MskyVmGW8FZnysWZqeCZ-11">
          <mxGeometry width="50" height="50" relative="1" as="geometry">
            <mxPoint x="600" y="320" as="sourcePoint" />
            <mxPoint x="650" y="270" as="targetPoint" />
          </mxGeometry>
        </mxCell>
        <mxCell id="MskyVmGW8FZnysWZqeCZ-39" value="" style="endArrow=classic;html=1;rounded=0;fontFamily=Times New Roman;fontSize=24;entryX=0;entryY=1;entryDx=0;entryDy=0;exitX=1;exitY=0;exitDx=0;exitDy=0;" edge="1" parent="1" source="MskyVmGW8FZnysWZqeCZ-9" target="MskyVmGW8FZnysWZqeCZ-10">
          <mxGeometry width="50" height="50" relative="1" as="geometry">
            <mxPoint x="600" y="320" as="sourcePoint" />
            <mxPoint x="650" y="270" as="targetPoint" />
          </mxGeometry>
        </mxCell>
        <mxCell id="MskyVmGW8FZnysWZqeCZ-40" value="" style="endArrow=classic;html=1;rounded=0;fontFamily=Times New Roman;fontSize=24;entryX=0;entryY=0.5;entryDx=0;entryDy=0;" edge="1" parent="1" target="MskyVmGW8FZnysWZqeCZ-15">
          <mxGeometry width="50" height="50" relative="1" as="geometry">
            <mxPoint x="760" y="100" as="sourcePoint" />
            <mxPoint x="810" y="50" as="targetPoint" />
          </mxGeometry>
        </mxCell>
        <mxCell id="MskyVmGW8FZnysWZqeCZ-41" value="" style="endArrow=classic;html=1;rounded=0;fontFamily=Times New Roman;fontSize=24;entryX=0;entryY=0.5;entryDx=0;entryDy=0;" edge="1" parent="1" target="MskyVmGW8FZnysWZqeCZ-14">
          <mxGeometry width="50" height="50" relative="1" as="geometry">
            <mxPoint x="760" y="220" as="sourcePoint" />
            <mxPoint x="810" y="170" as="targetPoint" />
          </mxGeometry>
        </mxCell>
        <mxCell id="MskyVmGW8FZnysWZqeCZ-42" value="" style="endArrow=classic;html=1;rounded=0;fontFamily=Times New Roman;fontSize=24;entryX=0;entryY=0.5;entryDx=0;entryDy=0;" edge="1" parent="1" target="MskyVmGW8FZnysWZqeCZ-13">
          <mxGeometry width="50" height="50" relative="1" as="geometry">
            <mxPoint x="760" y="340" as="sourcePoint" />
            <mxPoint x="810" y="290" as="targetPoint" />
          </mxGeometry>
        </mxCell>
        <mxCell id="MskyVmGW8FZnysWZqeCZ-43" value="" style="endArrow=classic;html=1;rounded=0;fontFamily=Times New Roman;fontSize=24;entryX=0;entryY=0;entryDx=0;entryDy=0;exitX=1;exitY=1;exitDx=0;exitDy=0;" edge="1" parent="1" source="MskyVmGW8FZnysWZqeCZ-10" target="MskyVmGW8FZnysWZqeCZ-13">
          <mxGeometry width="50" height="50" relative="1" as="geometry">
            <mxPoint x="580" y="500" as="sourcePoint" />
            <mxPoint x="630" y="450" as="targetPoint" />
          </mxGeometry>
        </mxCell>
        <mxCell id="MskyVmGW8FZnysWZqeCZ-44" value="" style="endArrow=classic;html=1;rounded=0;fontFamily=Times New Roman;fontSize=24;entryX=0;entryY=0;entryDx=0;entryDy=0;exitX=1;exitY=1;exitDx=0;exitDy=0;" edge="1" parent="1" source="MskyVmGW8FZnysWZqeCZ-12" target="MskyVmGW8FZnysWZqeCZ-16">
          <mxGeometry width="50" height="50" relative="1" as="geometry">
            <mxPoint x="780" y="360" as="sourcePoint" />
            <mxPoint x="810" y="310" as="targetPoint" />
          </mxGeometry>
        </mxCell>
        <mxCell id="MskyVmGW8FZnysWZqeCZ-45" value="" style="endArrow=classic;html=1;rounded=0;fontFamily=Times New Roman;fontSize=24;entryX=0;entryY=0;entryDx=0;entryDy=0;exitX=0.69;exitY=0.995;exitDx=0;exitDy=0;exitPerimeter=0;" edge="1" parent="1" source="MskyVmGW8FZnysWZqeCZ-12" target="MskyVmGW8FZnysWZqeCZ-17">
          <mxGeometry width="50" height="50" relative="1" as="geometry">
            <mxPoint x="760" y="360" as="sourcePoint" />
            <mxPoint x="810" y="310" as="targetPoint" />
          </mxGeometry>
        </mxCell>
        <mxCell id="MskyVmGW8FZnysWZqeCZ-46" value="" style="endArrow=classic;html=1;rounded=0;fontFamily=Times New Roman;fontSize=24;entryX=0;entryY=0;entryDx=0;entryDy=0;exitX=1;exitY=1;exitDx=0;exitDy=0;" edge="1" parent="1" source="MskyVmGW8FZnysWZqeCZ-15" target="MskyVmGW8FZnysWZqeCZ-19">
          <mxGeometry width="50" height="50" relative="1" as="geometry">
            <mxPoint x="920" y="120" as="sourcePoint" />
            <mxPoint x="970" y="70" as="targetPoint" />
          </mxGeometry>
        </mxCell>
        <mxCell id="MskyVmGW8FZnysWZqeCZ-47" value="" style="endArrow=classic;html=1;rounded=0;fontFamily=Times New Roman;fontSize=24;entryX=0;entryY=0;entryDx=0;entryDy=0;exitX=1;exitY=1;exitDx=0;exitDy=0;" edge="1" parent="1" source="MskyVmGW8FZnysWZqeCZ-14" target="MskyVmGW8FZnysWZqeCZ-18">
          <mxGeometry width="50" height="50" relative="1" as="geometry">
            <mxPoint x="920" y="240" as="sourcePoint" />
            <mxPoint x="970" y="190" as="targetPoint" />
          </mxGeometry>
        </mxCell>
        <mxCell id="MskyVmGW8FZnysWZqeCZ-48" value="" style="endArrow=classic;html=1;rounded=0;fontFamily=Times New Roman;fontSize=24;entryX=0.01;entryY=0.695;entryDx=0;entryDy=0;exitX=1;exitY=0;exitDx=0;exitDy=0;entryPerimeter=0;" edge="1" parent="1" source="MskyVmGW8FZnysWZqeCZ-14" target="MskyVmGW8FZnysWZqeCZ-20">
          <mxGeometry width="50" height="50" relative="1" as="geometry">
            <mxPoint x="990" y="460" as="sourcePoint" />
            <mxPoint x="1040" y="410" as="targetPoint" />
          </mxGeometry>
        </mxCell>
        <mxCell id="MskyVmGW8FZnysWZqeCZ-49" value="" style="endArrow=classic;html=1;rounded=0;fontFamily=Times New Roman;fontSize=24;entryX=0;entryY=1;entryDx=0;entryDy=0;exitX=1;exitY=0;exitDx=0;exitDy=0;" edge="1" parent="1" source="MskyVmGW8FZnysWZqeCZ-13" target="MskyVmGW8FZnysWZqeCZ-20">
          <mxGeometry width="50" height="50" relative="1" as="geometry">
            <mxPoint x="920" y="320" as="sourcePoint" />
            <mxPoint x="970" y="270" as="targetPoint" />
          </mxGeometry>
        </mxCell>
        <mxCell id="MskyVmGW8FZnysWZqeCZ-50" value="" style="endArrow=classic;html=1;rounded=0;fontFamily=Times New Roman;fontSize=24;exitX=1;exitY=0;exitDx=0;exitDy=0;" edge="1" parent="1" source="MskyVmGW8FZnysWZqeCZ-16" target="MskyVmGW8FZnysWZqeCZ-18">
          <mxGeometry width="50" height="50" relative="1" as="geometry">
            <mxPoint x="920" y="440" as="sourcePoint" />
            <mxPoint x="970" y="390" as="targetPoint" />
          </mxGeometry>
        </mxCell>
        <mxCell id="MskyVmGW8FZnysWZqeCZ-51" value="" style="endArrow=classic;html=1;rounded=0;fontFamily=Times New Roman;fontSize=24;exitX=1;exitY=0;exitDx=0;exitDy=0;" edge="1" parent="1" source="MskyVmGW8FZnysWZqeCZ-17">
          <mxGeometry width="50" height="50" relative="1" as="geometry">
            <mxPoint x="920" y="560" as="sourcePoint" />
            <mxPoint x="1050" y="360" as="targetPoint" />
          </mxGeometry>
        </mxCell>
        <mxCell id="MskyVmGW8FZnysWZqeCZ-52" value="" style="endArrow=classic;html=1;rounded=0;fontFamily=Times New Roman;fontSize=24;" edge="1" parent="1">
          <mxGeometry width="50" height="50" relative="1" as="geometry">
            <mxPoint x="1080" y="100" as="sourcePoint" />
            <mxPoint x="1200" y="100" as="targetPoint" />
          </mxGeometry>
        </mxCell>
        <mxCell id="MskyVmGW8FZnysWZqeCZ-53" value="" style="endArrow=classic;html=1;rounded=0;fontFamily=Times New Roman;fontSize=24;entryX=0;entryY=1;entryDx=0;entryDy=0;exitX=1;exitY=0;exitDx=0;exitDy=0;" edge="1" parent="1" source="MskyVmGW8FZnysWZqeCZ-19" target="MskyVmGW8FZnysWZqeCZ-23">
          <mxGeometry width="50" height="50" relative="1" as="geometry">
            <mxPoint x="1080" y="200" as="sourcePoint" />
            <mxPoint x="1130" y="150" as="targetPoint" />
          </mxGeometry>
        </mxCell>
        <mxCell id="MskyVmGW8FZnysWZqeCZ-54" value="" style="endArrow=classic;html=1;rounded=0;fontFamily=Times New Roman;fontSize=24;entryX=0;entryY=0.5;entryDx=0;entryDy=0;" edge="1" parent="1" target="MskyVmGW8FZnysWZqeCZ-22">
          <mxGeometry width="50" height="50" relative="1" as="geometry">
            <mxPoint x="1080" y="220" as="sourcePoint" />
            <mxPoint x="1130" y="170" as="targetPoint" />
          </mxGeometry>
        </mxCell>
        <mxCell id="MskyVmGW8FZnysWZqeCZ-55" value="" style="endArrow=classic;html=1;rounded=0;fontFamily=Times New Roman;fontSize=24;" edge="1" parent="1">
          <mxGeometry width="50" height="50" relative="1" as="geometry">
            <mxPoint x="1080" y="340" as="sourcePoint" />
            <mxPoint x="1200" y="340" as="targetPoint" />
          </mxGeometry>
        </mxCell>
        <mxCell id="MskyVmGW8FZnysWZqeCZ-56" value="" style="endArrow=classic;html=1;rounded=0;fontFamily=Times New Roman;fontSize=24;exitX=1;exitY=1;exitDx=0;exitDy=0;" edge="1" parent="1" source="MskyVmGW8FZnysWZqeCZ-23" target="MskyVmGW8FZnysWZqeCZ-24">
          <mxGeometry width="50" height="50" relative="1" as="geometry">
            <mxPoint x="1240" y="120" as="sourcePoint" />
            <mxPoint x="1290" y="70" as="targetPoint" />
          </mxGeometry>
        </mxCell>
        <mxCell id="MskyVmGW8FZnysWZqeCZ-57" value="" style="endArrow=classic;html=1;rounded=0;fontFamily=Times New Roman;fontSize=24;entryX=0;entryY=0.5;entryDx=0;entryDy=0;" edge="1" parent="1" target="MskyVmGW8FZnysWZqeCZ-24">
          <mxGeometry width="50" height="50" relative="1" as="geometry">
            <mxPoint x="1240" y="220" as="sourcePoint" />
            <mxPoint x="1290" y="170" as="targetPoint" />
          </mxGeometry>
        </mxCell>
        <mxCell id="MskyVmGW8FZnysWZqeCZ-58" value="" style="endArrow=classic;html=1;rounded=0;fontFamily=Times New Roman;fontSize=24;exitX=1;exitY=0;exitDx=0;exitDy=0;" edge="1" parent="1" source="MskyVmGW8FZnysWZqeCZ-21" target="MskyVmGW8FZnysWZqeCZ-24">
          <mxGeometry width="50" height="50" relative="1" as="geometry">
            <mxPoint x="1240" y="320" as="sourcePoint" />
            <mxPoint x="1290" y="270" as="targetPoint" />
          </mxGeometry>
        </mxCell>
        <mxCell id="MskyVmGW8FZnysWZqeCZ-60" value="1" style="text;html=1;strokeColor=none;fillColor=none;align=center;verticalAlign=middle;whiteSpace=wrap;rounded=0;dashed=1;fontFamily=Times New Roman;fontSize=24;" vertex="1" parent="1">
          <mxGeometry x="230" y="640" width="60" height="30" as="geometry" />
        </mxCell>
        <mxCell id="MskyVmGW8FZnysWZqeCZ-61" value="Level:" style="text;html=1;strokeColor=none;fillColor=none;align=center;verticalAlign=middle;whiteSpace=wrap;rounded=0;dashed=1;fontFamily=Times New Roman;fontSize=24;" vertex="1" parent="1">
          <mxGeometry x="120" y="640" width="60" height="30" as="geometry" />
        </mxCell>
        <mxCell id="MskyVmGW8FZnysWZqeCZ-62" value="2" style="text;html=1;strokeColor=none;fillColor=none;align=center;verticalAlign=middle;whiteSpace=wrap;rounded=0;dashed=1;fontFamily=Times New Roman;fontSize=24;" vertex="1" parent="1">
          <mxGeometry x="390" y="640" width="60" height="30" as="geometry" />
        </mxCell>
        <mxCell id="MskyVmGW8FZnysWZqeCZ-63" value="&lt;i&gt;l&lt;/i&gt;" style="text;html=1;strokeColor=none;fillColor=none;align=center;verticalAlign=middle;whiteSpace=wrap;rounded=0;dashed=1;fontFamily=Times New Roman;fontSize=24;" vertex="1" parent="1">
          <mxGeometry x="550" y="640" width="60" height="30" as="geometry" />
        </mxCell>
        <mxCell id="MskyVmGW8FZnysWZqeCZ-64" value="......" style="text;html=1;strokeColor=none;fillColor=none;align=center;verticalAlign=middle;whiteSpace=wrap;rounded=0;dashed=1;fontFamily=Times New Roman;fontSize=24;" vertex="1" parent="1">
          <mxGeometry x="710" y="640" width="60" height="30" as="geometry" />
        </mxCell>
        <mxCell id="MskyVmGW8FZnysWZqeCZ-65" value="|V|&lt;sup&gt;1/2&lt;/sup&gt;" style="text;html=1;strokeColor=none;fillColor=none;align=center;verticalAlign=middle;whiteSpace=wrap;rounded=0;dashed=1;fontFamily=Times New Roman;fontSize=24;" vertex="1" parent="1">
          <mxGeometry x="870" y="640" width="60" height="30" as="geometry" />
        </mxCell>
        <mxCell id="MskyVmGW8FZnysWZqeCZ-66" value="......" style="text;html=1;strokeColor=none;fillColor=none;align=center;verticalAlign=middle;whiteSpace=wrap;rounded=0;dashed=1;fontFamily=Times New Roman;fontSize=24;" vertex="1" parent="1">
          <mxGeometry x="1030" y="640" width="60" height="30" as="geometry" />
        </mxCell>
        <mxCell id="MskyVmGW8FZnysWZqeCZ-67" value="&lt;font style=&quot;font-size: 36px;&quot;&gt;|V&lt;i&gt;&lt;sub&gt;l&lt;/sub&gt;&lt;/i&gt;| ≤ |V|&lt;sup&gt;1/2&lt;/sup&gt;&lt;/font&gt;" style="text;html=1;strokeColor=none;fillColor=none;align=center;verticalAlign=middle;whiteSpace=wrap;rounded=0;dashed=1;fontFamily=Times New Roman;fontSize=24;" vertex="1" parent="1">
          <mxGeometry x="490" y="480" width="180" height="30" as="geometry" />
        </mxCell>
        <mxCell id="MskyVmGW8FZnysWZqeCZ-69" value="&lt;font face=&quot;Helvetica&quot;&gt;Level Graph G = (V, E)&lt;/font&gt;" style="text;html=1;strokeColor=none;fillColor=none;align=center;verticalAlign=middle;whiteSpace=wrap;rounded=0;dashed=1;fontFamily=Times New Roman;fontSize=36;" vertex="1" parent="1">
          <mxGeometry x="120" width="400" height="50" as="geometry" />
        </mxCell>
      </root>
    </mxGraphModel>
  </diagram>
</mxfile>
